<svg width="20" height="20" fill="none" xmlns="http://www.w3.org/2000/svg"><g clip-path="url(#clip0)" fill="#F5DC4E"><path d="M19.824 3.974L13.758 10l6.066 6.027c.11-.23.176-.483.176-.754V4.728c0-.271-.067-.524-.176-.753zm-1.582-1.005H1.758c-.27 0-.524.066-.753.176l7.752 7.713a1.76 1.76 0 002.486 0l7.752-7.713a1.737 1.737 0 00-.753-.176zM.176 3.974A1.73 1.73 0 000 4.727v10.547c0 .27.067.523.176.753L6.242 10 .176 3.974z"/><path d="M12.93 10.829l-.859.858a2.933 2.933 0 01-4.143 0l-.858-.858-6.065 6.026c.229.11.482.176.753.176h16.484c.27 0 .524-.066.753-.176L12.93 10.83z"/></g><defs><clipPath id="clip0"><path fill="#fff" d="M0 0h20v20H0z"/></clipPath></defs></svg>