<svg width="20" height="20" fill="none" xmlns="http://www.w3.org/2000/svg"><path d="M7.668 13.142c0 1.297-.69 2.35-1.54 2.35-.853 0-1.542-1.053-1.542-2.35 0-1.3.69-2.352 1.542-2.352.85 0 1.54 1.053 1.54 2.352zm6.09-2.351c-.852 0-1.541 1.052-1.541 2.351 0 1.298.689 2.351 1.541 2.351.851 0 1.54-1.053 1.54-2.35 0-1.3-.689-2.352-1.54-2.352zm6.242.096c0 4.161-2.12 7.534-7.725 7.534h-4.55C1.925 18.42 0 15.048 0 10.887c0-1.736.603-3.335 1.615-4.61-.77-2.909.376-4.697.376-4.697 1.709-.02 3.233.98 4.279 1.908a7.936 7.936 0 011.457-.134h4.55c.517 0 1.022.05 1.509.144 1.043-.928 2.576-1.937 4.287-1.917l.003.005.001.001.01.014s0 .002.002.003l.033.06.001.002c.008.012.014.028.024.044l.002.002c.241.466.964 2.144.286 4.628A7.372 7.372 0 0120 10.887zm-2.633 2.136c-.281-2.025-1.062-3.652-3.237-3.53-1.21.071-2.818.422-4.418.436-1.36.013-2.721-.3-3.75-.36-2.176-.122-2.956 1.427-3.237 3.454-.282 2.022.969 3.94 3.474 4.081 2.524.146 5.055.146 7.58 0 2.504-.142 3.87-2.06 3.588-4.08z" fill="#F5DC4E"/></svg>