<svg width="15" height="15" fill="none" xmlns="http://www.w3.org/2000/svg"><g clip-path="url(#clip0)" fill="#F5DC4E"><path d="M1.811 2.613l2.371 4.123a3.459 3.459 0 011.735-2.278c.732-.385 1.407-.362 2.454-.362h5.807c-2.416-4.74-8.88-5.54-12.367-1.483z"/><path d="M7.498 5.007a2.495 2.495 0 000 4.987A2.496 2.496 0 009.99 7.501a2.496 2.496 0 00-2.493-2.494z"/><path d="M4.532 9.171a1791.79 1791.79 0 01-3.315-5.765C-1.663 7.819.818 13.833 6.046 14.86l2.418-4.095c-1.398.415-3.036-.045-3.932-1.594z"/><path d="M14.569 5.005H9.813a3.414 3.414 0 01.63 4.2 1131.04 1131.04 0 01-3.413 5.78c5.386.331 9.312-4.947 7.538-9.98z"/></g><defs><clipPath id="clip0"><path fill="#fff" d="M0 0h15v15H0z"/></clipPath></defs></svg>