<svg width="15" height="15" fill="none" xmlns="http://www.w3.org/2000/svg"><path d="M10.435.326c1.449.985 2.283 3.58 2.283 5.544 0 .501-.066.99-.183 1.447A3.937 3.937 0 0010.97 4.52c.482.651.77 1.454.77 2.327a3.916 3.916 0 01-3.914 3.914c-.873 0-1.304-.17-1.956-.653 1.323 0 2.138-1.304 3.26-1.304 0 0-.162-.652-.978-.652-.815 0-.43.652-1.956.652s-2.283-.92-2.283-1.63c0-.71 1.057-1.227 1.304-.978.222-.222 0-.653 0-.653L7.175 4.24h-.653c-2.896 0-1.233-2.028-.652-2.609-1.037 0-1.69.96-1.958 1.304-.163-.077-1.304-.077-1.63 0-.144.033-.345-.22-.534-.573-.235-.444-.444-1.037-.444-1.383C.476 1.807.62 3.046.946 3.534a.143.143 0 00-.033.053A7.501 7.501 0 007.5 14.674c4.14 0 7.5-3.033 7.5-7.174v-.653c0-3.871-2.478-5.895-4.565-6.52z" fill="#F5DC4E"/></svg>