<svg width="15" height="15" fill="none" xmlns="http://www.w3.org/2000/svg"><path d="M7.5.922c-.252 0-.506.014-.758.04A.6.6 0 006.825.52C6.76.21 6.442 0 6.036 0a1.22 1.22 0 00-.251.027c-.236.05-.442.163-.582.318a.627.627 0 00-.168.556.6.6 0 00.262.373A7.098 7.098 0 001.906 3.69 6.974 6.974 0 00.46 7.961 7.047 7.047 0 007.501 15a7.047 7.047 0 007.038-7.039A7.047 7.047 0 007.5.922zM6.036.476c.184 0 .309.073.323.143.009.04-.014.09-.059.14a.583.583 0 00-.692.145c-.06-.026-.1-.063-.107-.102-.01-.044.02-.103.077-.158a.648.648 0 01.306-.151.737.737 0 01.152-.017zm2.99 12.376l-.561-.91a.123.123 0 00-.227.048l-.142 1.058a5.086 5.086 0 01-4.137-1.387.11.11 0 00.03-.016l2.777-2.11c.186.086.387.14.59.157l.704 1.479a.123.123 0 00.234-.05l.042-1.637a1.76 1.76 0 00.418-.32l.832.294a.123.123 0 00.13-.2l-.608-.64a1.66 1.66 0 00.123-.512L10.71 7.4a.123.123 0 00-.05-.234l-1.512-.039 2.036-2.679a.125.125 0 00.017-.029 5.124 5.124 0 011.19 2.015l-.91.562a.123.123 0 00.048.226l1.058.142a5.088 5.088 0 01-1.466 4.217 5.126 5.126 0 01-2.095 1.27zM3.575 8.795A.123.123 0 003.47 8.7l-1.058-.142A5.088 5.088 0 013.879 4.34a5.129 5.129 0 012.095-1.27l.562.91a.123.123 0 00.226-.048l.142-1.058a5.086 5.086 0 014.137 1.387.124.124 0 00-.029.016l-2.778 2.11a1.752 1.752 0 00-.59-.157L6.94 4.751a.123.123 0 00-.234.05l-.042 1.637a1.707 1.707 0 00-.418.32l-.832-.294a.123.123 0 00-.13.2l.608.64a1.712 1.712 0 00-.123.512l-1.479.705a.123.123 0 00.05.234l1.512.039-2.036 2.679a.123.123 0 00-.016.029 5.123 5.123 0 01-1.191-2.015l.91-.562a.123.123 0 00.056-.13zm4.583.24a1.255 1.255 0 01-.939.155l.845-.642a.12.12 0 00.023-.024l.642-.844.004.019c.11.522-.12 1.059-.575 1.337zm-.92-2.307a1.272 1.272 0 01.543.004l-.844.642a.123.123 0 00-.024.024l-.642.844-.004-.019c-.144-.68.291-1.35.971-1.495z" fill="#F5DC4E"/></svg>